<svg width="0" height="0" xmlns="http://www.w3.org/2000/svg" xmlns:xlink="http://www.w3.org/1999/xlink">
<symbol id="twitter" viewBox="0 0 512 512"><path fill="currentColor" d="M459.37 151.716c.325 4.548.325 9.097.325 13.645 0 138.72-105.583 298.558-298.558 298.558-59.452 0-114.68-17.219-161.137-47.106 8.447.974 16.568 1.299 25.34 1.299 49.055 0 94.213-16.568 130.274-44.832-46.132-.975-84.792-31.188-98.112-72.772 6.498.974 12.995 1.624 19.818 1.624 9.421 0 18.843-1.3 27.614-3.573-48.081-9.747-84.143-51.98-84.143-102.985v-1.299c13.969 7.797 30.214 12.67 47.431 13.319-28.264-18.843-46.781-51.005-46.781-87.391 0-19.492 5.197-37.36 14.294-52.954 51.655 63.675 129.3 105.258 216.365 109.807-1.624-7.797-2.599-15.918-2.599-24.04 0-57.828 46.782-104.934 104.934-104.934 30.213 0 57.502 12.67 76.67 33.137 23.715-4.548 46.456-13.32 66.599-25.34-7.798 24.366-24.366 44.833-46.132 57.827 21.117-2.273 41.584-8.122 60.426-16.243-14.292 20.791-32.161 39.308-52.628 54.253z"/></symbol>
<symbol id="mastodon" viewBox="0 0 217 232"><path d="M108.594 0c29.66.242 58.21 3.454 74.837 11.09 0 0 32.975 14.753 32.975 65.082v.045c.014 1.436.314 37.605-4.599 62.87-3.18 16.367-28.492 34.278-57.562 37.75-15.159 1.808-30.084 3.47-45.999 2.74-26.027-1.192-46.565-6.212-46.565-6.212 0 2.534.156 4.946.469 7.202 3.384 25.687 25.47 27.225 46.391 27.943 21.116.722 39.919-5.206 39.919-5.206l.867 19.09s-14.77 7.931-41.08 9.39c-14.51.797-32.525-.365-53.507-5.919C9.232 213.82 1.406 165.311.209 116.091c-.365-14.613-.14-28.393-.14-39.918 0-50.33 32.976-65.083 32.976-65.083C49.672 3.454 78.204.242 107.865 0h.729zm33.526 39.326c-12.356 0-21.713 4.748-27.898 14.247l-6.015 10.081-6.013-10.08c-6.187-9.5-15.543-14.248-27.898-14.248-10.679 0-19.281 3.754-25.85 11.076-6.37 7.322-9.541 17.22-9.541 29.675v60.941h24.144v-59.15c0-12.468 5.246-18.797 15.74-18.797 11.602 0 17.418 7.507 17.418 22.352V117.8h24.002V85.423c0-14.845 5.815-22.352 17.417-22.352 10.494 0 15.74 6.329 15.74 18.797v59.15h24.144V80.077c0-12.455-3.171-22.352-9.54-29.675-6.57-7.322-15.173-11.076-25.85-11.076z" fill="currentColor" fill-rule="nonzero"/></symbol>
<symbol id="github" viewBox="0 0 496 512"><path fill="currentColor" d="M165.9 397.4c0 2-2.3 3.6-5.2 3.6-3.3.3-5.6-1.3-5.6-3.6 0-2 2.3-3.6 5.2-3.6 3-.3 5.6 1.3 5.6 3.6zm-31.1-4.5c-.7 2 1.3 4.3 4.3 4.9 2.6 1 5.6 0 6.2-2s-1.3-4.3-4.3-5.2c-2.6-.7-5.5.3-6.2 2.3zm44.2-1.7c-2.9.7-4.9 2.6-4.6 4.9.3 2 2.9 3.3 5.9 2.6 2.9-.7 4.9-2.6 4.6-4.6-.3-1.9-3-3.2-5.9-2.9zM244.8 8C106.1 8 0 113.3 0 252c0 110.9 69.8 205.8 169.5 239.2 12.8 2.3 17.3-5.6 17.3-12.1 0-6.2-.3-40.4-.3-61.4 0 0-70 15-84.7-29.8 0 0-11.4-29.1-27.8-36.6 0 0-22.9-15.7 1.6-15.4 0 0 24.9 2 38.6 25.8 21.9 38.6 58.6 27.5 72.9 20.9 2.3-16 8.8-27.1 16-33.7-55.9-6.2-112.3-14.3-112.3-110.5 0-27.5 7.6-41.3 23.6-58.9-2.6-6.5-11.1-33.3 2.6-67.9 20.9-6.5 69 27 69 27 20-5.6 41.5-8.5 62.8-8.5s42.8 2.9 62.8 8.5c0 0 48.1-33.6 69-27 13.7 34.7 5.2 61.4 2.6 67.9 16 17.7 25.8 31.5 25.8 58.9 0 96.5-58.9 104.2-114.8 110.5 9.2 7.9 17 22.9 17 46.4 0 33.7-.3 75.4-.3 83.6 0 6.5 4.6 14.4 17.3 12.1C428.2 457.8 496 362.9 496 252 496 113.3 383.5 8 244.8 8zM97.2 352.9c-1.3 1-1 3.3.7 5.2 1.6 1.6 3.9 2.3 5.2 1 1.3-1 1-3.3-.7-5.2-1.6-1.6-3.9-2.3-5.2-1zm-10.8-8.1c-.7 1.3.3 2.9 2.3 3.9 1.6 1 3.6.7 4.3-.7.7-1.3-.3-2.9-2.3-3.9-2-.6-3.6-.3-4.3.7zm32.4 35.6c-1.6 1.3-1 4.3 1.3 6.2 2.3 2.3 5.2 2.6 6.5 1 1.3-1.3.7-4.3-1.3-6.2-2.2-2.3-5.2-2.6-6.5-1zm-11.4-14.7c-1.6 1-1.6 3.6 0 5.9 1.6 2.3 4.3 3.3 5.6 2.3 1.6-1.3 1.6-3.9 0-6.2-1.4-2.3-4-3.3-5.6-2z"/></symbol>
<symbol id="gitlab" viewBox="0 0 512 512"><path fill="currentColor" d="M256 491.816l94.272-290.14H161.734L256 491.816zM29.606 201.676l-28.65 88.17a19.517 19.517 0 007.093 21.822L256 491.816 29.606 201.676z"/><path fill="currentColor" d="M29.606 201.676H161.73L104.946 26.927c-2.92-8.991-15.64-8.991-18.56 0l-56.78 174.75zM482.393 201.676l28.651 88.17a19.517 19.517 0 01-7.093 21.822l-247.95 180.148 226.392-290.14z"/><path fill="currentColor" d="M482.394 201.676H350.271l56.783-174.749c2.922-8.991 15.642-8.991 18.562 0l56.778 174.75z"/></symbol>
</svg>
