<?xml version="1.0" encoding="utf-8"?>
<!-- Generator: Adobe Illustrator 22.0.1, SVG Export Plug-In . SVG Version: 6.00 Build 0)  -->
<svg version="1.1" id="Layer_1" xmlns="http://www.w3.org/2000/svg" xmlns:xlink="http://www.w3.org/1999/xlink" x="0px" y="0px"
	 viewBox="0 0 1770.2 780.1" style="enable-background:new 0 0 1770.2 780.1;" xml:space="preserve">
<style type="text/css">
	.st0{fill:#4A90E2;}
	.st1{fill:#000034;}
	.st2{fill:#FFFFFF;}
</style>
<g>
	<path class="st0" d="M885.1,106.2L885.1,106.2c-156.7,0-283.8,127.1-283.8,283.8v0c0,156.7,127.1,283.8,283.8,283.8h0
		c156.7,0,283.8-127.1,283.8-283.8v0C1168.9,233.3,1041.8,106.2,885.1,106.2z"/>
</g>
<g>
	<path class="st1" d="M907.5,390c0,12.4-10,22.4-22.4,22.4s-22.4-10-22.4-22.4c0-16.8-5.6-22.4-22.4-22.4S818,373.3,818,390
		c0,12.4-10,22.4-22.4,22.4s-22.4-10-22.4-22.4c0-12.4,10-22.4,22.4-22.4c16.8,0,22.4-5.6,22.4-22.4c0-12.4,10-22.4,22.4-22.4
		s22.4,10,22.4,22.4c0,16.8,5.6,22.4,22.4,22.4C897.4,367.7,907.5,377.7,907.5,390z"/>
	<circle class="st1" cx="750.9" cy="434.8" r="22.4"/>
	<path class="st1" d="M1041.6,345.3c0,12.4-10,22.4-22.4,22.4c-16.8,0-22.4,5.6-22.4,22.4c0,12.4-10,22.4-22.4,22.4
		c-16.8,0-22.4,5.6-22.4,22.4c0,12.4-10,22.4-22.4,22.4s-22.4-10-22.4-22.4c0-12.4,10-22.4,22.4-22.4c16.8,0,22.4-5.6,22.4-22.4
		c0-12.4,10-22.4,22.4-22.4c16.8,0,22.4-5.6,22.4-22.4c0-12.4,10-22.4,22.4-22.4C1031.6,322.9,1041.6,333,1041.6,345.3z"/>
</g>
</svg>
