<svg width="0" height="0" xmlns="http://www.w3.org/2000/svg" xmlns:xlink="http://www.w3.org/1999/xlink">
<symbol id="twitter" viewBox="0 0 512 512"><path fill="currentColor" d="M459.37 151.716c.325 4.548.325 9.097.325 13.645 0 138.72-105.583 298.558-298.558 298.558-59.452 0-114.68-17.219-161.137-47.106 8.447.974 16.568 1.299 25.34 1.299 49.055 0 94.213-16.568 130.274-44.832-46.132-.975-84.792-31.188-98.112-72.772 6.498.974 12.995 1.624 19.818 1.624 9.421 0 18.843-1.3 27.614-3.573-48.081-9.747-84.143-51.98-84.143-102.985v-1.299c13.969 7.797 30.214 12.67 47.431 13.319-28.264-18.843-46.781-51.005-46.781-87.391 0-19.492 5.197-37.36 14.294-52.954 51.655 63.675 129.3 105.258 216.365 109.807-1.624-7.797-2.599-15.918-2.599-24.04 0-57.828 46.782-104.934 104.934-104.934 30.213 0 57.502 12.67 76.67 33.137 23.715-4.548 46.456-13.32 66.599-25.34-7.798 24.366-24.366 44.833-46.132 57.827 21.117-2.273 41.584-8.122 60.426-16.243-14.292 20.791-32.161 39.308-52.628 54.253z"/></symbol>
<symbol id="nostr" viewBox="0 0 2000 2000"><path d="M1000 0C447.755 0 0 447.755 0 1000c0 552.24 447.755 1000 1000 1000 552.24 0 1000-447.76 1000-1000C2000 447.755 1552.24 0 1000 0Zm574.29 770.408c-42.25 70.204-128.37 117.959-136.33 122.041-16.12 8.571-22.04 21.02-21.02 39.592 1.02 18.571-3.47 110.609-59.59 151.229-28.78 20.81-144.9 47.75-198.17 56.73-27.34 4.69-33.67 13.06-48.77 22.04-20.41 12.65-92.86 113.06-105.1 135.31 1.63-.21 228.36-70.62 238.57-72.25 26.94-4.08 47.34 3.68 60.61 23.27 12.65 18.77 25.1 37.75 37.55 56.73 4.49 6.74 8.78 13.68 13.06 20.61l4.49 7.15c1.63 2.65 3.88 5.71 4.9 9.79.82 2.86 2.65 12.45-2.86 18.17-5.1 5.3-13.87 5.3-18.57 4.08-4.49-1.23-11.22-3.88-16.73-8.37l-7.55-6.33c-5.92-5.1-17.15-7.55-25.92-7.14-10.21.41-23.68-2.86-30.21-6.94-12.65-8.16-15.92-28.57-15.92-28.77-1.63-6.74-6.53-8.57-11.02-8.57-8.16-.21-14.49 2.24-21.02 4.08-29.79 8.98-59.38 18.16-89.18 27.55l-42.65 13.26c-21.02 6.53-42.04 13.06-62.86 20-5.71 1.84-11.22 4.7-17.14 7.76-2.45 1.22-4.901 2.45-7.35 3.67a146.916 146.916 0 0 0-7.551 4.08c-5.51 3.06-11.428 6.33-17.959 8.17-21.224 6.32-39.796-2.86-48.571-24.08-5.715-13.68-.613-40.82 2.449-48.78 19.183-49.8 81.632-143.67 81.632-144.29-1.02-.4-69.183 26.94-80.408 35.51-30.816 23.47-103.061 78.98-104.082 84.29-4.693 24.69-20 43.27-43.469 52.45-16.939 6.53-27.143 20-37.143 33.06 0 0-181.02 249.39-193.265 262.86-3.674 4.08-37.551 39.59-46.531 56.12-2.041 4.08-9.796 20.41-11.836 24.49-1.633 3.26-5.307 12.04-19.184 11.43-13.878-.61-14.286-20-14.898-28.37-1.429-20.61 3.061-40.82 13.877-62.04 1.021-2.04 13.266-20.61 8.776-35.51-4.082-13.06-7.959-33.27-1.837-43.47 9.592-16.12 26.531-16.73 49.184-20.41 15.714-2.65 27.143-10.41 38.163-26.53 23.265-33.88 110.817-158.16 130.612-186.94 5.307-7.55 9.388-17.34 11.225-26.94 5.714-28.98 23.265-49.18 53.877-61.63 6.531-2.65 128.368-104.49 128.368-117.55 0-9.39-13.265-14.49-23.47-17.35-1.428-.4-77.959-20.2-112.857-36.12-18.979-8.57-33.265-16.12-50.204-28.37-23.061-16.94-69.183-8.77-75.918-7.75-32.653 4.69-56.939 19.39-84.49 37.96-4.898 3.47-30 12.45-42.653 5.3-24.694-14.08-78.98-39.38-98.98-69.79-9.183-14.084-7.959-36.941-1.428-62.247 21.02-58.775 52.041-85.102 109.388-101.02 40.816-14.082 123.061-17.143 162.653-20.204 2.653-.817 90.408-2.858 152.04-34.49 41.021-21.021 162.858-102.041 338.16-96.531 70.82 2.245 204.7 71.429 256.33 73.47 52.65 2.244 78.98-3.674 109.39-35.102 8.57-8.98 45.1-87.756 10.61-130.817-12.86-15.918-26.12-30.204-41.43-43.265-20.61-17.551-42.04-34.286-60.61-54.082-41.02-43.469-53.67-102.857-34.29-149.183 12.45-32.449 38.58-46.531 76.33-39.184 26.53 5.102 45.92 28.98 64.9 41.633 10.61 7.142 28.37 11.224 40 14.081 14.69 3.47 25.71 14.694 25.1 22.245-.61 7.551-20 14.082-38.57 12.653-22.04-1.428-59.8-1.632-82.45 5.919-15.1 5.51-21.84 22.244-17.35 38.775 3.68 13.469 32.45 37.551 43.27 46.531 21.63 17.755 44.69 33.877 62.65 56.122 20.21 25.306 30.82 54.082 34.08 85.918 4.9 48.776-7.96 92.654-32.85 134.286Z" fill="currentColor"/></symbol>
<symbol id="mastodon" viewBox="0 0 217 232"><path d="M108.594 0c29.66.242 58.21 3.454 74.837 11.09 0 0 32.975 14.753 32.975 65.082v.045c.014 1.436.314 37.605-4.599 62.87-3.18 16.367-28.492 34.278-57.562 37.75-15.159 1.808-30.084 3.47-45.999 2.74-26.027-1.192-46.565-6.212-46.565-6.212 0 2.534.156 4.946.469 7.202 3.384 25.687 25.47 27.225 46.391 27.943 21.116.722 39.919-5.206 39.919-5.206l.867 19.09s-14.77 7.931-41.08 9.39c-14.51.797-32.525-.365-53.507-5.919C9.232 213.82 1.406 165.311.209 116.091c-.365-14.613-.14-28.393-.14-39.918 0-50.33 32.976-65.083 32.976-65.083C49.672 3.454 78.204.242 107.865 0h.729zm33.526 39.326c-12.356 0-21.713 4.748-27.898 14.247l-6.015 10.081-6.013-10.08c-6.187-9.5-15.543-14.248-27.898-14.248-10.679 0-19.281 3.754-25.85 11.076-6.37 7.322-9.541 17.22-9.541 29.675v60.941h24.144v-59.15c0-12.468 5.246-18.797 15.74-18.797 11.602 0 17.418 7.507 17.418 22.352V117.8h24.002V85.423c0-14.845 5.815-22.352 17.417-22.352 10.494 0 15.74 6.329 15.74 18.797v59.15h24.144V80.077c0-12.455-3.171-22.352-9.54-29.675-6.57-7.322-15.173-11.076-25.85-11.076z" fill="currentColor" fill-rule="nonzero"/></symbol>
<symbol id="github" viewBox="0 0 496 512"><path fill="currentColor" d="M165.9 397.4c0 2-2.3 3.6-5.2 3.6-3.3.3-5.6-1.3-5.6-3.6 0-2 2.3-3.6 5.2-3.6 3-.3 5.6 1.3 5.6 3.6zm-31.1-4.5c-.7 2 1.3 4.3 4.3 4.9 2.6 1 5.6 0 6.2-2s-1.3-4.3-4.3-5.2c-2.6-.7-5.5.3-6.2 2.3zm44.2-1.7c-2.9.7-4.9 2.6-4.6 4.9.3 2 2.9 3.3 5.9 2.6 2.9-.7 4.9-2.6 4.6-4.6-.3-1.9-3-3.2-5.9-2.9zM244.8 8C106.1 8 0 113.3 0 252c0 110.9 69.8 205.8 169.5 239.2 12.8 2.3 17.3-5.6 17.3-12.1 0-6.2-.3-40.4-.3-61.4 0 0-70 15-84.7-29.8 0 0-11.4-29.1-27.8-36.6 0 0-22.9-15.7 1.6-15.4 0 0 24.9 2 38.6 25.8 21.9 38.6 58.6 27.5 72.9 20.9 2.3-16 8.8-27.1 16-33.7-55.9-6.2-112.3-14.3-112.3-110.5 0-27.5 7.6-41.3 23.6-58.9-2.6-6.5-11.1-33.3 2.6-67.9 20.9-6.5 69 27 69 27 20-5.6 41.5-8.5 62.8-8.5s42.8 2.9 62.8 8.5c0 0 48.1-33.6 69-27 13.7 34.7 5.2 61.4 2.6 67.9 16 17.7 25.8 31.5 25.8 58.9 0 96.5-58.9 104.2-114.8 110.5 9.2 7.9 17 22.9 17 46.4 0 33.7-.3 75.4-.3 83.6 0 6.5 4.6 14.4 17.3 12.1C428.2 457.8 496 362.9 496 252 496 113.3 383.5 8 244.8 8zM97.2 352.9c-1.3 1-1 3.3.7 5.2 1.6 1.6 3.9 2.3 5.2 1 1.3-1 1-3.3-.7-5.2-1.6-1.6-3.9-2.3-5.2-1zm-10.8-8.1c-.7 1.3.3 2.9 2.3 3.9 1.6 1 3.6.7 4.3-.7.7-1.3-.3-2.9-2.3-3.9-2-.6-3.6-.3-4.3.7zm32.4 35.6c-1.6 1.3-1 4.3 1.3 6.2 2.3 2.3 5.2 2.6 6.5 1 1.3-1.3.7-4.3-1.3-6.2-2.2-2.3-5.2-2.6-6.5-1zm-11.4-14.7c-1.6 1-1.6 3.6 0 5.9 1.6 2.3 4.3 3.3 5.6 2.3 1.6-1.3 1.6-3.9 0-6.2-1.4-2.3-4-3.3-5.6-2z"/></symbol>
<symbol id="gitlab" viewBox="0 0 512 512"><path fill="currentColor" d="M256 491.816l94.272-290.14H161.734L256 491.816zM29.606 201.676l-28.65 88.17a19.517 19.517 0 007.093 21.822L256 491.816 29.606 201.676z"/><path fill="currentColor" d="M29.606 201.676H161.73L104.946 26.927c-2.92-8.991-15.64-8.991-18.56 0l-56.78 174.75zM482.393 201.676l28.651 88.17a19.517 19.517 0 01-7.093 21.822l-247.95 180.148 226.392-290.14z"/><path fill="currentColor" d="M482.394 201.676H350.271l56.783-174.749c2.922-8.991 15.642-8.991 18.562 0l56.778 174.75z"/></symbol>
</svg>
